<mxfile host="Electron" agent="Mozilla/5.0 (X11; Linux x86_64) AppleWebKit/537.36 (KHTML, like Gecko) draw.io/24.7.5 Chrome/126.0.6478.185 Electron/31.3.1 Safari/537.36" version="24.7.5">
  <diagram name="Page-1" id="kuxGt-2jCfrgJw1pwiJs">
    <mxGraphModel dx="928" dy="702" grid="1" gridSize="10" guides="1" tooltips="1" connect="1" arrows="1" fold="1" page="1" pageScale="1" pageWidth="827" pageHeight="1169" math="0" shadow="0">
      <root>
        <mxCell id="0" />
        <mxCell id="1" parent="0" />
        <mxCell id="8Ok210YKob_pviOPnSTm-1" value="" style="curved=0;endArrow=none;html=1;rounded=1;endFill=0;strokeWidth=1;flowAnimation=0;shadow=0;" edge="1" parent="1">
          <mxGeometry width="50" height="50" relative="1" as="geometry">
            <mxPoint x="200" y="680" as="sourcePoint" />
            <mxPoint x="340" y="460" as="targetPoint" />
            <Array as="points">
              <mxPoint x="210" y="660" />
              <mxPoint x="330" y="660" />
              <mxPoint x="330" y="460" />
              <mxPoint x="210" y="390" />
              <mxPoint x="240" y="240" />
              <mxPoint x="250" y="240" />
              <mxPoint x="220" y="390" />
            </Array>
          </mxGeometry>
        </mxCell>
        <mxCell id="8Ok210YKob_pviOPnSTm-2" value="" style="curved=0;endArrow=none;html=1;rounded=1;endFill=0;" edge="1" parent="1">
          <mxGeometry width="50" height="50" relative="1" as="geometry">
            <mxPoint x="480" y="680" as="sourcePoint" />
            <mxPoint x="340" y="460" as="targetPoint" />
            <Array as="points">
              <mxPoint x="470" y="660" />
              <mxPoint x="350" y="660" />
              <mxPoint x="350" y="460" />
              <mxPoint x="470" y="390" />
              <mxPoint x="440" y="240" />
              <mxPoint x="430" y="240" />
              <mxPoint x="460" y="390" />
            </Array>
          </mxGeometry>
        </mxCell>
        <mxCell id="8Ok210YKob_pviOPnSTm-3" value="" style="endArrow=none;html=1;rounded=0;" edge="1" parent="1">
          <mxGeometry width="50" height="50" relative="1" as="geometry">
            <mxPoint x="200" y="680" as="sourcePoint" />
            <mxPoint x="480" y="680" as="targetPoint" />
          </mxGeometry>
        </mxCell>
        <mxCell id="8Ok210YKob_pviOPnSTm-6" value="" style="endArrow=classic;startArrow=classic;html=1;rounded=0;fontColor=#007FFF;strokeColor=#007FFF;" edge="1" parent="1">
          <mxGeometry width="50" height="50" relative="1" as="geometry">
            <mxPoint x="340" y="390" as="sourcePoint" />
            <mxPoint x="470" y="390" as="targetPoint" />
          </mxGeometry>
        </mxCell>
        <mxCell id="8Ok210YKob_pviOPnSTm-7" value="" style="endArrow=classic;startArrow=classic;html=1;rounded=0;fontColor=#007FFF;strokeColor=#007FFF;" edge="1" parent="1">
          <mxGeometry width="50" height="50" relative="1" as="geometry">
            <mxPoint x="440" y="240" as="sourcePoint" />
            <mxPoint x="340" y="240" as="targetPoint" />
          </mxGeometry>
        </mxCell>
        <mxCell id="8Ok210YKob_pviOPnSTm-8" value="" style="endArrow=classic;startArrow=classic;html=1;rounded=0;fontColor=#007FFF;strokeColor=#007FFF;" edge="1" parent="1">
          <mxGeometry width="50" height="50" relative="1" as="geometry">
            <mxPoint x="520" y="460" as="sourcePoint" />
            <mxPoint x="520" y="390" as="targetPoint" />
          </mxGeometry>
        </mxCell>
        <mxCell id="8Ok210YKob_pviOPnSTm-9" value="" style="endArrow=classic;startArrow=classic;html=1;rounded=0;fontColor=#007FFF;strokeColor=#007FFF;" edge="1" parent="1">
          <mxGeometry width="50" height="50" relative="1" as="geometry">
            <mxPoint x="520" y="390" as="sourcePoint" />
            <mxPoint x="520" y="240" as="targetPoint" />
          </mxGeometry>
        </mxCell>
        <mxCell id="8Ok210YKob_pviOPnSTm-10" value="" style="endArrow=classic;startArrow=classic;html=1;rounded=0;fontColor=#007FFF;strokeColor=#007FFF;" edge="1" parent="1">
          <mxGeometry width="50" height="50" relative="1" as="geometry">
            <mxPoint x="170" y="460" as="sourcePoint" />
            <mxPoint x="170" y="240" as="targetPoint" />
          </mxGeometry>
        </mxCell>
        <mxCell id="8Ok210YKob_pviOPnSTm-11" value="" style="endArrow=classic;startArrow=classic;html=1;rounded=0;fontColor=#007FFF;strokeColor=#007FFF;" edge="1" parent="1">
          <mxGeometry width="50" height="50" relative="1" as="geometry">
            <mxPoint x="340" y="700" as="sourcePoint" />
            <mxPoint x="480" y="700" as="targetPoint" />
          </mxGeometry>
        </mxCell>
        <mxCell id="8Ok210YKob_pviOPnSTm-12" value="" style="endArrow=classic;startArrow=classic;html=1;rounded=0;fontColor=#007FFF;strokeColor=#007FFF;" edge="1" parent="1">
          <mxGeometry width="50" height="50" relative="1" as="geometry">
            <mxPoint x="490" y="680" as="sourcePoint" />
            <mxPoint x="490" y="660" as="targetPoint" />
          </mxGeometry>
        </mxCell>
        <mxCell id="8Ok210YKob_pviOPnSTm-13" value="" style="endArrow=classic;startArrow=classic;html=1;rounded=0;fontColor=#007FFF;strokeColor=#007FFF;" edge="1" parent="1">
          <mxGeometry width="50" height="50" relative="1" as="geometry">
            <mxPoint x="170" y="680" as="sourcePoint" />
            <mxPoint x="170" y="460" as="targetPoint" />
          </mxGeometry>
        </mxCell>
        <mxCell id="8Ok210YKob_pviOPnSTm-14" value="bowl shape" style="text;html=1;align=center;verticalAlign=middle;whiteSpace=wrap;rounded=0;fontColor=#007FFF;" vertex="1" parent="1">
          <mxGeometry x="520" y="370" width="60" height="30" as="geometry" />
        </mxCell>
        <mxCell id="8Ok210YKob_pviOPnSTm-15" value="bowl size" style="text;html=1;align=center;verticalAlign=middle;whiteSpace=wrap;rounded=0;fontColor=#007FFF;" vertex="1" parent="1">
          <mxGeometry x="370" y="360" width="60" height="30" as="geometry" />
        </mxCell>
        <mxCell id="8Ok210YKob_pviOPnSTm-16" value="rim size" style="text;html=1;align=center;verticalAlign=middle;whiteSpace=wrap;rounded=0;fontColor=#007FFF;" vertex="1" parent="1">
          <mxGeometry x="360" y="210" width="60" height="30" as="geometry" />
        </mxCell>
        <mxCell id="8Ok210YKob_pviOPnSTm-17" value="base size" style="text;html=1;align=center;verticalAlign=middle;whiteSpace=wrap;rounded=0;fontColor=#007FFF;" vertex="1" parent="1">
          <mxGeometry x="380" y="700" width="60" height="30" as="geometry" />
        </mxCell>
        <mxCell id="8Ok210YKob_pviOPnSTm-18" value="base thickness" style="text;html=1;align=center;verticalAlign=middle;whiteSpace=wrap;rounded=0;fontColor=#007FFF;" vertex="1" parent="1">
          <mxGeometry x="490" y="660" width="60" height="30" as="geometry" />
        </mxCell>
        <mxCell id="8Ok210YKob_pviOPnSTm-19" value="stem height" style="text;html=1;align=center;verticalAlign=middle;whiteSpace=wrap;rounded=0;fontColor=#007FFF;" vertex="1" parent="1">
          <mxGeometry x="110" y="550" width="60" height="30" as="geometry" />
        </mxCell>
        <mxCell id="8Ok210YKob_pviOPnSTm-20" value="bowl height" style="text;html=1;align=center;verticalAlign=middle;whiteSpace=wrap;rounded=0;fontColor=#007FFF;" vertex="1" parent="1">
          <mxGeometry x="110" y="330" width="60" height="30" as="geometry" />
        </mxCell>
        <mxCell id="8Ok210YKob_pviOPnSTm-22" value="" style="endArrow=none;startArrow=classic;html=1;rounded=0;fontColor=#007FFF;strokeColor=#007FFF;curved=1;endFill=0;" edge="1" parent="1">
          <mxGeometry width="50" height="50" relative="1" as="geometry">
            <mxPoint x="340" y="560" as="sourcePoint" />
            <mxPoint x="430" y="520" as="targetPoint" />
            <Array as="points">
              <mxPoint x="360" y="530" />
            </Array>
          </mxGeometry>
        </mxCell>
        <mxCell id="8Ok210YKob_pviOPnSTm-23" value="stem size" style="text;html=1;align=center;verticalAlign=middle;whiteSpace=wrap;rounded=0;fontColor=#007FFF;" vertex="1" parent="1">
          <mxGeometry x="430" y="500" width="60" height="30" as="geometry" />
        </mxCell>
      </root>
    </mxGraphModel>
  </diagram>
</mxfile>
